<svg width="52" height="52" viewBox="0 0 52 52" fill="none" xmlns="http://www.w3.org/2000/svg">
<g id="insert_link 1">
<g id="Group">
<path id="Vector" d="M8.44937 25.9998C8.44937 22.2948 11.461 19.2832 15.166 19.2832H23.8327V15.1665H15.166C9.18604 15.1665 4.3327 20.0198 4.3327 25.9998C4.3327 31.9798 9.18604 36.8332 15.166 36.8332H23.8327V32.7165H15.166C11.461 32.7165 8.44937 29.7048 8.44937 25.9998ZM17.3327 28.1665H34.666V23.8332H17.3327V28.1665ZM36.8327 15.1665H28.166V19.2832H36.8327C40.5377 19.2832 43.5494 22.2948 43.5494 25.9998C43.5494 29.7048 40.5377 32.7165 36.8327 32.7165H28.166V36.8332H36.8327C42.8127 36.8332 47.666 31.9798 47.666 25.9998C47.666 20.0198 42.8127 15.1665 36.8327 15.1665Z" fill="white"/>
</g>
</g>
</svg>
