<svg width="24" height="24" viewBox="0 0 24 24" fill="none" xmlns="http://www.w3.org/2000/svg">
<g id="send">
<path id="Icon" d="M10.3014 13.695L20.1025 3.89754M10.58 14.1356L12.8024 18.5805C13.3395 19.6546 13.608 20.1917 13.9463 20.3357C14.2399 20.4607 14.5755 20.4381 14.8496 20.2748C15.1656 20.0867 15.3596 19.5185 15.7477 18.382L19.9468 6.08447C20.2849 5.09421 20.454 4.59908 20.3383 4.27154C20.2376 3.9866 20.0135 3.76246 19.7285 3.66179C19.401 3.54607 18.9059 3.71514 17.9156 4.05328L5.61812 8.25242C4.48163 8.64049 3.91338 8.83453 3.72527 9.15044C3.56202 9.42459 3.5394 9.76019 3.66438 10.0538C3.8084 10.3921 4.34547 10.6606 5.41961 11.1977L9.86445 13.4201C10.0414 13.5086 10.1299 13.5528 10.2066 13.6119C10.2747 13.6644 10.3357 13.7254 10.3881 13.7935C10.4473 13.8701 10.4915 13.9586 10.58 14.1356Z" stroke="white" stroke-width="1.5" stroke-linecap="round" stroke-linejoin="round"/>
</g>
</svg>
