<svg width="69" height="60" viewBox="0 0 69 60" fill="none" xmlns="http://www.w3.org/2000/svg">
<g id="Upload icon">
<path id="Vector" d="M36.0283 14.7458L36.1205 14.7733L36.1245 14.7688C36.5622 14.8481 36.9963 14.586 37.1249 14.1519C38.2966 10.2152 41.9877 7.46504 46.1001 7.46504C46.587 7.46504 46.9818 7.07016 46.9818 6.5833C46.9818 6.09643 46.5869 5.70156 46.1001 5.70156C41.0459 5.70156 36.7987 9.06665 35.435 13.6493C35.2958 14.1162 35.5618 14.6067 36.0283 14.7458Z" fill="white" stroke="#F9FFF9" stroke-width="0.3"/>
<path id="Vector_2" d="M56.3438 42.4384H51.9534C51.5494 42.4384 51.2217 42.1107 51.2217 41.7067C51.2217 41.3027 51.5494 40.9749 51.9534 40.9749H56.3438C62.3956 40.9749 67.3197 36.0509 67.3197 29.999C67.3197 23.9471 62.3956 19.023 56.3438 19.023H56.2382C56.026 19.023 55.8242 18.9311 55.6852 18.7706C55.5462 18.6101 55.4834 18.3974 55.5138 18.1873C55.5791 17.7315 55.612 17.2737 55.612 16.8279C55.612 11.5829 51.3444 7.31531 46.0995 7.31531C44.059 7.31531 42.1131 7.95296 40.4719 9.15978C40.1112 9.42478 39.599 9.30718 39.3905 8.91047C34.7425 0.0596993 22.6023 -1.12887 16.3082 6.57053C13.6568 9.81417 12.615 14.0336 13.4498 18.146C13.5418 18.6002 13.1942 19.0236 12.7327 19.0236H12.4395C6.3876 19.0236 1.46353 23.9477 1.46353 29.9996C1.46353 36.0514 6.3876 40.9755 12.4395 40.9755H16.8298C17.2338 40.9755 17.5615 41.3032 17.5615 41.7072C17.5615 42.1113 17.2338 42.439 16.8298 42.439H12.4395C5.5805 42.439 0 36.8585 0 29.9995C0 23.3329 5.27155 17.8742 11.8651 17.5731C11.2457 13.3066 12.4301 9.00295 15.1751 5.64437C21.9138 -2.5996 34.828 -1.67556 40.2871 7.51707C42.0287 6.42522 44.0215 5.85244 46.0992 5.85244C52.4538 5.85244 57.4892 11.261 57.0486 17.58C63.5813 17.9463 68.7829 23.3763 68.7829 29.999C68.7829 36.8585 63.2024 42.4384 56.3434 42.4384L56.3438 42.4384Z" fill="white"/>
<path id="Vector_3" d="M15.85 41.2935C15.85 51.4634 24.1237 59.737 34.2935 59.737C44.4634 59.737 52.737 51.4633 52.737 41.2935C52.737 31.1235 44.4634 22.85 34.2935 22.85C24.1235 22.85 15.85 31.1237 15.85 41.2935ZM17.6138 41.2935C17.6138 32.0966 25.0964 24.6138 34.2935 24.6138C43.4904 24.6138 50.9732 32.0964 50.9732 41.2935C50.9732 50.4904 43.4904 57.9732 34.2935 57.9732C25.0966 57.9732 17.6138 50.4905 17.6138 41.2935Z" fill="white" stroke="#F9FFF9" stroke-width="0.3"/>
<g id="arrow">
<path id="Vector_4" d="M33.9422 48.6577C33.9422 49.0363 34.2493 49.3434 34.6279 49.3434C35.0064 49.3434 35.3136 49.0367 35.3136 48.6577V34.7291C35.3136 34.3504 35.0065 34.0434 34.6279 34.0434C34.2492 34.0434 33.9422 34.3504 33.9422 34.7291V48.6577Z" fill="white" stroke="#483EA8" stroke-width="0.3"/>
<path id="Vector_5" d="M34.6279 35.7004L30.8272 39.5011L34.6279 35.7004ZM34.6279 35.7004L38.4286 39.5012C38.5624 39.6349 38.7384 39.702 38.9135 39.702L34.6279 35.7004ZM29.8573 39.5012C30.1251 39.769 30.5595 39.7691 30.8271 39.5012L38.9135 39.702C39.0883 39.702 39.2645 39.6355 39.3984 39.5011C39.6663 39.2332 39.6662 38.7992 39.3984 38.5314L35.1127 34.2457C34.8449 33.9779 34.4105 33.9778 34.143 34.2457C34.1429 34.2458 34.1429 34.2458 34.1429 34.2458L29.8573 38.5314C29.5894 38.7993 29.5894 39.2333 29.8573 39.5012Z" fill="white" stroke="#483EA8" stroke-width="0.3"/>
</g>
</g>
</svg>
